<svg id="visual" viewBox="0 0 900 600" width="900" height="600" xmlns="http://www.w3.org/2000/svg" xmlns:xlink="http://www.w3.org/1999/xlink" version="1.1"><g><g transform="translate(472 424)"><path d="M105.5 -58.9C126.4 -24.6 126.1 24 104.9 57.8C83.8 91.7 41.9 110.7 2.1 109.6C-37.8 108.4 -75.6 86.9 -96.9 53C-118.2 19.1 -122.9 -27.3 -104 -60.4C-85.1 -93.5 -42.6 -113.3 -0.1 -113.3C42.3 -113.2 84.5 -93.2 105.5 -58.9Z" fill="#F7760E"></path></g><g transform="translate(212 183)"><path d="M55.4 -31.2C66.9 -12.2 67.8 13.8 56.8 32.2C45.8 50.7 22.9 61.7 0.1 61.7C-22.8 61.7 -45.6 50.6 -56.1 32.4C-66.7 14.2 -64.9 -11.1 -53.5 -30.1C-42.1 -49.1 -21 -61.8 0.5 -62.1C22 -62.4 44 -50.2 55.4 -31.2Z" fill="#F7760E"></path></g><g transform="translate(637 152)"><path d="M75.8 -46.9C89.1 -20.7 84.6 12.8 69 36.9C53.3 61 26.7 75.8 -3.6 77.9C-33.9 80 -67.8 69.3 -81.1 46.5C-94.4 23.7 -87.2 -11.2 -70.3 -39.6C-53.4 -67.9 -26.7 -89.6 2.3 -90.9C31.2 -92.3 62.5 -73.2 75.8 -46.9Z" fill="#F7760E"></path></g></g></svg>